<svg id="svg" version="1.1" width="400" height="400" viewBox="0 0 400 400" xmlns="http://www.w3.org/2000/svg" xmlns:xlink="http://www.w3.org/1999/xlink" ><g id="svgg"><path id="path0" d="M0.000 200.000 L 0.000 400.000 200.000 400.000 L 400.000 400.000 400.000 200.000 L 400.000 0.000 200.000 0.000 L 0.000 0.000 0.000 200.000 M392.976 7.161 C 393.335 7.742,393.244 392.516,392.885 392.875 C 392.706 393.054,305.808 393.156,199.780 393.100 L 7.000 393.000 6.898 200.400 C 6.841 94.470,6.881 7.575,6.985 7.300 C 7.217 6.690,392.599 6.552,392.976 7.161 M120.773 84.303 C 120.110 84.391,118.406 85.784,115.973 88.227 L 112.200 92.016 112.083 197.708 C 112.003 269.974,112.097 303.856,112.381 304.842 C 112.671 305.847,113.882 307.329,116.385 309.742 L 119.972 313.200 131.435 313.200 L 142.898 313.200 146.299 309.900 C 151.259 305.088,150.800 309.290,150.800 268.705 L 150.800 233.385 164.913 219.292 C 180.708 203.521,180.138 203.921,182.261 207.107 C 182.954 208.148,186.741 213.770,190.676 219.600 C 198.540 231.251,210.132 248.447,220.336 263.600 C 223.965 268.990,229.304 276.910,232.199 281.200 C 235.095 285.490,240.844 294.040,244.976 300.200 C 249.107 306.360,252.928 311.805,253.466 312.300 L 254.445 313.200 270.346 313.200 C 282.468 313.200,286.395 313.081,286.871 312.700 C 287.758 311.988,292.800 302.183,292.800 301.168 C 292.800 300.213,291.262 297.927,269.274 266.200 C 264.853 259.820,258.842 251.125,255.917 246.879 C 252.993 242.632,250.001 238.312,249.268 237.279 C 248.536 236.245,243.529 229.010,238.141 221.200 C 232.753 213.390,226.512 204.344,224.272 201.098 C 222.033 197.851,218.418 192.631,216.241 189.498 C 209.082 179.196,208.000 177.558,208.000 177.023 C 208.000 176.603,256.246 128.246,281.690 103.163 C 287.989 96.954,287.894 98.569,282.677 86.297 C 282.289 85.385,281.628 84.639,280.993 84.397 C 279.869 83.970,257.393 83.844,251.600 84.233 L 248.200 84.461 200.200 132.636 C 172.944 159.991,151.900 180.809,151.505 180.806 C 150.850 180.800,150.804 178.251,150.705 136.403 L 150.600 92.005 146.697 88.103 L 142.795 84.200 132.297 84.184 C 126.524 84.175,121.338 84.229,120.773 84.303 " stroke="none" fill="#ffffff" fill-rule="evenodd"></path><path id="path1" d="M6.985 7.300 C 6.881 7.575,6.841 94.470,6.898 200.400 L 7.000 393.000 199.780 393.100 C 305.808 393.156,392.706 393.054,392.885 392.875 C 393.244 392.516,393.335 7.742,392.976 7.161 C 392.599 6.552,7.217 6.690,6.985 7.300 M146.697 88.103 L 150.600 92.005 150.705 136.403 C 150.804 178.251,150.850 180.800,151.505 180.806 C 151.900 180.809,172.944 159.991,200.200 132.636 L 248.200 84.461 251.600 84.233 C 257.393 83.844,279.869 83.970,280.993 84.397 C 281.628 84.639,282.289 85.385,282.677 86.297 C 287.894 98.569,287.989 96.954,281.690 103.163 C 256.246 128.246,208.000 176.603,208.000 177.023 C 208.000 177.558,209.082 179.196,216.241 189.498 C 218.418 192.631,222.033 197.851,224.272 201.098 C 226.512 204.344,232.753 213.390,238.141 221.200 C 243.529 229.010,248.536 236.245,249.268 237.279 C 250.001 238.312,252.993 242.632,255.917 246.879 C 258.842 251.125,264.853 259.820,269.274 266.200 C 291.262 297.927,292.800 300.213,292.800 301.168 C 292.800 302.183,287.758 311.988,286.871 312.700 C 286.395 313.081,282.468 313.200,270.346 313.200 L 254.445 313.200 253.466 312.300 C 252.928 311.805,249.107 306.360,244.976 300.200 C 240.844 294.040,235.095 285.490,232.199 281.200 C 229.304 276.910,223.965 268.990,220.336 263.600 C 210.132 248.447,198.540 231.251,190.676 219.600 C 186.741 213.770,182.954 208.148,182.261 207.107 C 180.138 203.921,180.708 203.521,164.913 219.292 L 150.800 233.385 150.800 268.705 C 150.800 309.290,151.259 305.088,146.299 309.900 L 142.898 313.200 131.435 313.200 L 119.972 313.200 116.385 309.742 C 113.882 307.329,112.671 305.847,112.381 304.842 C 112.097 303.856,112.003 269.974,112.083 197.708 L 112.200 92.016 115.973 88.227 C 120.401 83.781,118.858 84.163,132.297 84.184 L 142.795 84.200 146.697 88.103 " stroke="none" fill="#d30404" fill-rule="evenodd"></path></g></svg>